<?xml version="1.0" encoding="UTF-8" standalone="no"?>
<!-- Created with Inkscape (http://www.inkscape.org/) -->

<svg
   xmlns:dc="http://purl.org/dc/elements/1.1/"
   xmlns:cc="http://creativecommons.org/ns#"
   xmlns:rdf="http://www.w3.org/1999/02/22-rdf-syntax-ns#"
   xmlns:svg="http://www.w3.org/2000/svg"
   xmlns="http://www.w3.org/2000/svg"
   xmlns:sodipodi="http://sodipodi.sourceforge.net/DTD/sodipodi-0.dtd"
   xmlns:inkscape="http://www.inkscape.org/namespaces/inkscape"
   width="744.09448819"
   height="1052.3622047"
   id="svg2"
   version="1.1"
   inkscape:version="0.48.4 r9939"
   sodipodi:docname="hmm_models.pdf">
  <defs
     id="defs4">
    <marker
       inkscape:stockid="Arrow1Mend"
       orient="auto"
       refY="0.0"
       refX="0.0"
       id="Arrow1Mend"
       style="overflow:visible;">
      <path
         id="path3821"
         d="M 0.0,0.0 L 5.0,-5.0 L -12.5,0.0 L 5.0,5.0 L 0.0,0.0 z "
         style="fill-rule:evenodd;stroke:#000000;stroke-width:1.0pt;"
         transform="scale(0.4) rotate(180) translate(10,0)" />
    </marker>
    <marker
       inkscape:stockid="Arrow1Mend"
       orient="auto"
       refY="0"
       refX="0"
       id="Arrow1Mend-6"
       style="overflow:visible">
      <path
         inkscape:connector-curvature="0"
         id="path3821-2"
         d="M 0,0 5,-5 -12.5,0 5,5 0,0 z"
         style="fill-rule:evenodd;stroke:#000000;stroke-width:1pt"
         transform="matrix(-0.4,0,0,-0.4,-4,0)" />
    </marker>
    <marker
       inkscape:stockid="Arrow1Mend"
       orient="auto"
       refY="0"
       refX="0"
       id="Arrow1Mend-8"
       style="overflow:visible">
      <path
         inkscape:connector-curvature="0"
         id="path3821-9"
         d="M 0,0 5,-5 -12.5,0 5,5 0,0 z"
         style="fill-rule:evenodd;stroke:#000000;stroke-width:1pt"
         transform="matrix(-0.4,0,0,-0.4,-4,0)" />
    </marker>
    <marker
       inkscape:stockid="Arrow1Mend"
       orient="auto"
       refY="0"
       refX="0"
       id="marker6539"
       style="overflow:visible">
      <path
         inkscape:connector-curvature="0"
         id="path6541"
         d="M 0,0 5,-5 -12.5,0 5,5 0,0 z"
         style="fill-rule:evenodd;stroke:#000000;stroke-width:1pt"
         transform="matrix(-0.4,0,0,-0.4,-4,0)" />
    </marker>
    <marker
       inkscape:stockid="Arrow1Mend"
       orient="auto"
       refY="0"
       refX="0"
       id="Arrow1Mend-5"
       style="overflow:visible">
      <path
         inkscape:connector-curvature="0"
         id="path3821-1"
         d="M 0,0 5,-5 -12.5,0 5,5 0,0 z"
         style="fill-rule:evenodd;stroke:#000000;stroke-width:1pt"
         transform="matrix(-0.4,0,0,-0.4,-4,0)" />
    </marker>
    <marker
       inkscape:stockid="Arrow1Mend"
       orient="auto"
       refY="0"
       refX="0"
       id="marker6539-0"
       style="overflow:visible">
      <path
         inkscape:connector-curvature="0"
         id="path6541-4"
         d="M 0,0 5,-5 -12.5,0 5,5 0,0 z"
         style="fill-rule:evenodd;stroke:#000000;stroke-width:1pt"
         transform="matrix(-0.4,0,0,-0.4,-4,0)" />
    </marker>
    <marker
       inkscape:stockid="Arrow1Mend"
       orient="auto"
       refY="0"
       refX="0"
       id="Arrow1Mend-9"
       style="overflow:visible">
      <path
         inkscape:connector-curvature="0"
         id="path3821-6"
         d="M 0,0 5,-5 -12.5,0 5,5 0,0 z"
         style="fill-rule:evenodd;stroke:#000000;stroke-width:1pt"
         transform="matrix(-0.4,0,0,-0.4,-4,0)" />
    </marker>
    <marker
       inkscape:stockid="Arrow1Mend"
       orient="auto"
       refY="0"
       refX="0"
       id="marker6539-8"
       style="overflow:visible">
      <path
         inkscape:connector-curvature="0"
         id="path6541-7"
         d="M 0,0 5,-5 -12.5,0 5,5 0,0 z"
         style="fill-rule:evenodd;stroke:#000000;stroke-width:1pt"
         transform="matrix(-0.4,0,0,-0.4,-4,0)" />
    </marker>
    <marker
       inkscape:stockid="Arrow1Mend"
       orient="auto"
       refY="0"
       refX="0"
       id="marker6539-8-6"
       style="overflow:visible">
      <path
         inkscape:connector-curvature="0"
         id="path6541-7-0"
         d="M 0,0 5,-5 -12.5,0 5,5 0,0 z"
         style="fill-rule:evenodd;stroke:#000000;stroke-width:1pt"
         transform="matrix(-0.4,0,0,-0.4,-4,0)" />
    </marker>
    <marker
       inkscape:stockid="Arrow1Mend"
       orient="auto"
       refY="0"
       refX="0"
       id="marker7600"
       style="overflow:visible">
      <path
         inkscape:connector-curvature="0"
         id="path7602"
         d="M 0,0 5,-5 -12.5,0 5,5 0,0 z"
         style="fill-rule:evenodd;stroke:#000000;stroke-width:1pt"
         transform="matrix(-0.4,0,0,-0.4,-4,0)" />
    </marker>
    <marker
       inkscape:stockid="Arrow1Mend"
       orient="auto"
       refY="0"
       refX="0"
       id="marker7604"
       style="overflow:visible">
      <path
         inkscape:connector-curvature="0"
         id="path7606"
         d="M 0,0 5,-5 -12.5,0 5,5 0,0 z"
         style="fill-rule:evenodd;stroke:#000000;stroke-width:1pt"
         transform="matrix(-0.4,0,0,-0.4,-4,0)" />
    </marker>
    <marker
       inkscape:stockid="Arrow1Mend"
       orient="auto"
       refY="0"
       refX="0"
       id="marker7608"
       style="overflow:visible">
      <path
         inkscape:connector-curvature="0"
         id="path7610"
         d="M 0,0 5,-5 -12.5,0 5,5 0,0 z"
         style="fill-rule:evenodd;stroke:#000000;stroke-width:1pt"
         transform="matrix(-0.4,0,0,-0.4,-4,0)" />
    </marker>
    <marker
       inkscape:stockid="Arrow1Mend"
       orient="auto"
       refY="0"
       refX="0"
       id="Arrow1Mend-1"
       style="overflow:visible">
      <path
         inkscape:connector-curvature="0"
         id="path3821-3"
         d="M 0,0 5,-5 -12.5,0 5,5 0,0 z"
         style="fill-rule:evenodd;stroke:#000000;stroke-width:1pt"
         transform="matrix(-0.4,0,0,-0.4,-4,0)" />
    </marker>
    <marker
       inkscape:stockid="Arrow1Mend"
       orient="auto"
       refY="0"
       refX="0"
       id="marker7614"
       style="overflow:visible">
      <path
         inkscape:connector-curvature="0"
         id="path7616"
         d="M 0,0 5,-5 -12.5,0 5,5 0,0 z"
         style="fill-rule:evenodd;stroke:#000000;stroke-width:1pt"
         transform="matrix(-0.4,0,0,-0.4,-4,0)" />
    </marker>
    <marker
       inkscape:stockid="Arrow1Mend"
       orient="auto"
       refY="0"
       refX="0"
       id="marker7618"
       style="overflow:visible">
      <path
         inkscape:connector-curvature="0"
         id="path7620"
         d="M 0,0 5,-5 -12.5,0 5,5 0,0 z"
         style="fill-rule:evenodd;stroke:#000000;stroke-width:1pt"
         transform="matrix(-0.4,0,0,-0.4,-4,0)" />
    </marker>
    <marker
       inkscape:stockid="Arrow1Mend"
       orient="auto"
       refY="0"
       refX="0"
       id="marker7622"
       style="overflow:visible">
      <path
         inkscape:connector-curvature="0"
         id="path7624"
         d="M 0,0 5,-5 -12.5,0 5,5 0,0 z"
         style="fill-rule:evenodd;stroke:#000000;stroke-width:1pt"
         transform="matrix(-0.4,0,0,-0.4,-4,0)" />
    </marker>
    <marker
       inkscape:stockid="Arrow1Mend"
       orient="auto"
       refY="0"
       refX="0"
       id="marker7626"
       style="overflow:visible">
      <path
         inkscape:connector-curvature="0"
         id="path7628"
         d="M 0,0 5,-5 -12.5,0 5,5 0,0 z"
         style="fill-rule:evenodd;stroke:#000000;stroke-width:1pt"
         transform="matrix(-0.4,0,0,-0.4,-4,0)" />
    </marker>
    <marker
       inkscape:stockid="Arrow1Mend"
       orient="auto"
       refY="0"
       refX="0"
       id="marker7630"
       style="overflow:visible">
      <path
         inkscape:connector-curvature="0"
         id="path7632"
         d="M 0,0 5,-5 -12.5,0 5,5 0,0 z"
         style="fill-rule:evenodd;stroke:#000000;stroke-width:1pt"
         transform="matrix(-0.4,0,0,-0.4,-4,0)" />
    </marker>
    <marker
       inkscape:stockid="Arrow1Mend"
       orient="auto"
       refY="0"
       refX="0"
       id="marker7634"
       style="overflow:visible">
      <path
         inkscape:connector-curvature="0"
         id="path7636"
         d="M 0,0 5,-5 -12.5,0 5,5 0,0 z"
         style="fill-rule:evenodd;stroke:#000000;stroke-width:1pt"
         transform="matrix(-0.4,0,0,-0.4,-4,0)" />
    </marker>
    <marker
       inkscape:stockid="Arrow1Mend"
       orient="auto"
       refY="0"
       refX="0"
       id="marker7638"
       style="overflow:visible">
      <path
         inkscape:connector-curvature="0"
         id="path7640"
         d="M 0,0 5,-5 -12.5,0 5,5 0,0 z"
         style="fill-rule:evenodd;stroke:#000000;stroke-width:1pt"
         transform="matrix(-0.4,0,0,-0.4,-4,0)" />
    </marker>
    <marker
       inkscape:stockid="Arrow1Mend"
       orient="auto"
       refY="0"
       refX="0"
       id="marker7642"
       style="overflow:visible">
      <path
         inkscape:connector-curvature="0"
         id="path7644"
         d="M 0,0 5,-5 -12.5,0 5,5 0,0 z"
         style="fill-rule:evenodd;stroke:#000000;stroke-width:1pt"
         transform="matrix(-0.4,0,0,-0.4,-4,0)" />
    </marker>
    <marker
       inkscape:stockid="Arrow1Mend"
       orient="auto"
       refY="0"
       refX="0"
       id="marker7646"
       style="overflow:visible">
      <path
         inkscape:connector-curvature="0"
         id="path7648"
         d="M 0,0 5,-5 -12.5,0 5,5 0,0 z"
         style="fill-rule:evenodd;stroke:#000000;stroke-width:1pt"
         transform="matrix(-0.4,0,0,-0.4,-4,0)" />
    </marker>
    <marker
       inkscape:stockid="Arrow1Mend"
       orient="auto"
       refY="0"
       refX="0"
       id="marker7650"
       style="overflow:visible">
      <path
         inkscape:connector-curvature="0"
         id="path7652"
         d="M 0,0 5,-5 -12.5,0 5,5 0,0 z"
         style="fill-rule:evenodd;stroke:#000000;stroke-width:1pt"
         transform="matrix(-0.4,0,0,-0.4,-4,0)" />
    </marker>
    <marker
       inkscape:stockid="Arrow1Mend"
       orient="auto"
       refY="0"
       refX="0"
       id="marker7654"
       style="overflow:visible">
      <path
         inkscape:connector-curvature="0"
         id="path7656"
         d="M 0,0 5,-5 -12.5,0 5,5 0,0 z"
         style="fill-rule:evenodd;stroke:#000000;stroke-width:1pt"
         transform="matrix(-0.4,0,0,-0.4,-4,0)" />
    </marker>
    <marker
       inkscape:stockid="Arrow1Mend"
       orient="auto"
       refY="0"
       refX="0"
       id="marker7658"
       style="overflow:visible">
      <path
         inkscape:connector-curvature="0"
         id="path7660"
         d="M 0,0 5,-5 -12.5,0 5,5 0,0 z"
         style="fill-rule:evenodd;stroke:#000000;stroke-width:1pt"
         transform="matrix(-0.4,0,0,-0.4,-4,0)" />
    </marker>
  </defs>
  <sodipodi:namedview
     id="base"
     pagecolor="#ffffff"
     bordercolor="#666666"
     borderopacity="1.0"
     inkscape:pageopacity="0.0"
     inkscape:pageshadow="2"
     inkscape:zoom="1.979899"
     inkscape:cx="305.50793"
     inkscape:cy="961.24096"
     inkscape:document-units="px"
     inkscape:current-layer="layer1"
     showgrid="true"
     inkscape:window-width="1920"
     inkscape:window-height="1149"
     inkscape:window-x="0"
     inkscape:window-y="25"
     inkscape:window-maximized="1">
    <inkscape:grid
       type="xygrid"
       id="grid3026"
       empspacing="5"
       visible="true"
       enabled="true"
       snapvisiblegridlinesonly="true" />
  </sodipodi:namedview>
  <metadata
     id="metadata7">
    <rdf:RDF>
      <cc:Work
         rdf:about="">
        <dc:format>image/svg+xml</dc:format>
        <dc:type
           rdf:resource="http://purl.org/dc/dcmitype/StillImage" />
        <dc:title></dc:title>
      </cc:Work>
    </rdf:RDF>
  </metadata>
  <g
     inkscape:label="Layer 1"
     inkscape:groupmode="layer"
     id="layer1">
    <path
       sodipodi:type="arc"
       style="fill:none;stroke:#0000ff;stroke-width:0.542;stroke-miterlimit:4;stroke-opacity:1;stroke-dasharray:none"
       id="path2985"
       sodipodi:cx="62.142857"
       sodipodi:cy="108.07647"
       sodipodi:rx="21.428572"
       sodipodi:ry="20"
       d="m 83.571428,108.07647 a 21.428572,20 0 1 1 -42.857143,0 21.428572,20 0 1 1 42.857143,0 z"
       transform="translate(92.571429,-2.8571429)" />
    <path
       transform="translate(182.14286,-1.7142878)"
       sodipodi:type="arc"
       style="fill:none;stroke:#ff0000;stroke-width:0.54200000000000004;stroke-miterlimit:4;stroke-opacity:1;stroke-dasharray:none"
       id="path2985-5"
       sodipodi:cx="62.142857"
       sodipodi:cy="108.07647"
       sodipodi:rx="21.428572"
       sodipodi:ry="20"
       d="m 83.571428,108.07647 a 21.428572,20 0 1 1 -42.857143,0 21.428572,20 0 1 1 42.857143,0 z" />
    <path
       transform="translate(277,-1.1428593)"
       sodipodi:type="arc"
       style="fill:none;stroke:#00ff00;stroke-width:0.54200000000000004;stroke-miterlimit:4;stroke-opacity:1;stroke-dasharray:none"
       id="path2985-4"
       sodipodi:cx="62.142857"
       sodipodi:cy="108.07647"
       sodipodi:rx="21.428572"
       sodipodi:ry="20"
       d="m 83.571428,108.07647 a 21.428572,20 0 1 1 -42.857143,0 21.428572,20 0 1 1 42.857143,0 z" />
    <path
       transform="translate(368.42857,-1.0000021)"
       sodipodi:type="arc"
       style="fill:none;stroke:#ff00ff;stroke-width:0.54200000000000004;stroke-miterlimit:4;stroke-opacity:1;stroke-dasharray:none"
       id="path2985-3"
       sodipodi:cx="62.142857"
       sodipodi:cy="108.07647"
       sodipodi:rx="21.428572"
       sodipodi:ry="20"
       d="m 83.571428,108.07647 a 21.428572,20 0 1 1 -42.857143,0 21.428572,20 0 1 1 42.857143,0 z" />
    <path
       transform="translate(469.28572,-1.7142878)"
       sodipodi:type="arc"
       style="fill:none;stroke:#000000;stroke-width:0.54200000000000004;stroke-miterlimit:4;stroke-opacity:1;stroke-dasharray:none"
       id="path2985-1"
       sodipodi:cx="62.142857"
       sodipodi:cy="108.07647"
       sodipodi:rx="21.428572"
       sodipodi:ry="20"
       d="m 83.571428,108.07647 a 21.428572,20 0 1 1 -42.857143,0 21.428572,20 0 1 1 42.857143,0 z" />
    <path
       style="fill:none;stroke:#ff0000;stroke-width:1px;stroke-linecap:butt;stroke-linejoin:miter;stroke-opacity:1;marker-end:url(#Arrow1Mend)"
       d="m 265,107.36218 50,0"
       id="path3032"
       inkscape:connector-curvature="0" />
    <path
       style="fill:none;stroke:#00ff00;stroke-width:1px;stroke-linecap:butt;stroke-linejoin:miter;stroke-opacity:1;marker-end:url(#Arrow1Mend)"
       d="m 360,107.36218 50,0"
       id="path3034"
       inkscape:connector-curvature="0" />
    <path
       style="fill:none;stroke:#fc00ff;stroke-width:1px;stroke-linecap:butt;stroke-linejoin:miter;stroke-opacity:1;marker-end:url(#Arrow1Mend)"
       d="m 450,107.36218 60,0"
       id="path3036"
       inkscape:connector-curvature="0" />
    <path
       style="fill:none;stroke:#0000ff;stroke-width:1px;stroke-linecap:butt;stroke-linejoin:miter;stroke-opacity:1;marker-end:url(#Arrow1Mend)"
       d="m 175,107.36218 45,0"
       id="path3038"
       inkscape:connector-curvature="0" />
    <path
       style="fill:none;stroke:#0000ff;stroke-width:1px;stroke-linecap:butt;stroke-linejoin:miter;stroke-opacity:1;marker-end:url(#Arrow1Mend)"
       d="m 144.59645,86.251781 c -30.25213,-54.623311 49.58715,-63.945207 20,0"
       id="path4798"
       inkscape:connector-curvature="0"
       sodipodi:nodetypes="cc" />
    <path
       style="fill:none;stroke:#ff0000;stroke-width:1px;stroke-linecap:butt;stroke-linejoin:miter;stroke-opacity:1;marker-end:url(#Arrow1Mend)"
       d="m 234.59645,88.251775 c -30.25213,-54.623312 49.58715,-63.945207 20,0"
       id="path4798-0"
       inkscape:connector-curvature="0"
       sodipodi:nodetypes="cc" />
    <path
       style="fill:none;stroke:#00ff00;stroke-width:1px;stroke-linecap:butt;stroke-linejoin:miter;stroke-opacity:1;marker-end:url(#Arrow1Mend)"
       d="m 329.59645,87.251775 c -30.25213,-54.623312 49.58715,-63.945207 20,0"
       id="path4798-5"
       inkscape:connector-curvature="0"
       sodipodi:nodetypes="cc" />
    <path
       style="fill:none;stroke:#ea00ff;stroke-width:1px;stroke-linecap:butt;stroke-linejoin:miter;stroke-opacity:1;marker-end:url(#Arrow1Mend)"
       d="m 419.59645,87.251775 c -30.25213,-54.623312 49.58715,-63.945207 20,0"
       id="path4798-4"
       inkscape:connector-curvature="0"
       sodipodi:nodetypes="cc" />
    <path
       style="fill:none;stroke:#000000;stroke-width:1px;stroke-linecap:butt;stroke-linejoin:miter;stroke-opacity:1;marker-end:url(#Arrow1Mend)"
       d="m 520.59645,88.251775 c -30.25213,-54.623312 49.58715,-63.945207 20,0"
       id="path4798-6"
       inkscape:connector-curvature="0"
       sodipodi:nodetypes="cc" />
    <text
       xml:space="preserve"
       style="font-size:8px;font-style:normal;font-variant:normal;font-weight:normal;font-stretch:normal;text-align:start;line-height:125%;letter-spacing:0px;word-spacing:0px;writing-mode:lr-tb;text-anchor:start;fill:#000000;fill-opacity:1;stroke:none;font-family:TG Pagella Math;-inkscape-font-specification:TG Pagella Math"
       x="151.50258"
       y="108.12209"
       id="text5749"
       sodipodi:linespacing="125%"><tspan
         sodipodi:role="line"
         id="tspan5751"
         x="151.50258"
         y="108.12209">0</tspan></text>
    <text
       xml:space="preserve"
       style="font-size:8px;font-style:normal;font-variant:normal;font-weight:normal;font-stretch:normal;text-align:start;line-height:125%;letter-spacing:0px;word-spacing:0px;writing-mode:lr-tb;text-anchor:start;fill:#000000;fill-opacity:1;stroke:none;font-family:TG Pagella Math;-inkscape-font-specification:TG Pagella Math"
       x="240.70946"
       y="108.8594"
       id="text5753"
       sodipodi:linespacing="125%"><tspan
         sodipodi:role="line"
         id="tspan5755"
         x="240.70946"
         y="108.8594">1</tspan></text>
    <text
       xml:space="preserve"
       style="font-size:8px;font-style:normal;font-variant:normal;font-weight:normal;font-stretch:normal;text-align:start;line-height:125%;letter-spacing:0px;word-spacing:0px;writing-mode:lr-tb;text-anchor:start;fill:#000000;fill-opacity:1;stroke:none;font-family:TG Pagella Math;-inkscape-font-specification:TG Pagella Math"
       x="336.14856"
       y="109.63732"
       id="text5757"
       sodipodi:linespacing="125%"><tspan
         sodipodi:role="line"
         id="tspan5759"
         x="336.14856"
         y="109.63732">2</tspan></text>
    <text
       xml:space="preserve"
       style="font-size:8px;font-style:normal;font-variant:normal;font-weight:normal;font-stretch:normal;text-align:start;line-height:125%;letter-spacing:0px;word-spacing:0px;writing-mode:lr-tb;text-anchor:start;fill:#000000;fill-opacity:1;stroke:none;font-family:TG Pagella Math;-inkscape-font-specification:TG Pagella Math"
       x="427.84021"
       y="110.12209"
       id="text5761"
       sodipodi:linespacing="125%"><tspan
         sodipodi:role="line"
         id="tspan5763"
         x="427.84021"
         y="110.12209">3</tspan></text>
    <text
       xml:space="preserve"
       style="font-size:8px;font-style:normal;font-variant:normal;font-weight:normal;font-stretch:normal;text-align:start;line-height:125%;letter-spacing:0px;word-spacing:0px;writing-mode:lr-tb;text-anchor:start;fill:#000000;fill-opacity:1;stroke:none;font-family:TG Pagella Math;-inkscape-font-specification:TG Pagella Math"
       x="529.34021"
       y="109.86955"
       id="text5765"
       sodipodi:linespacing="125%"><tspan
         sodipodi:role="line"
         id="tspan5767"
         x="529.34021"
         y="109.86955">4</tspan></text>
    <path
       style="fill:none;stroke:#0000ff;stroke-width:1px;stroke-linecap:butt;stroke-linejoin:miter;stroke-opacity:1;marker-end:url(#Arrow1Mend)"
       d="m 155,127.36218 c 66.06439,21.43888 126.51276,15.49968 185,0"
       id="path5769"
       inkscape:connector-curvature="0"
       sodipodi:nodetypes="cc" />
    <path
       style="fill:none;stroke:#0000ff;stroke-width:1px;stroke-linecap:butt;stroke-linejoin:miter;stroke-opacity:1;marker-end:url(#Arrow1Mend)"
       d="m 155,127.36218 c 94.93977,37.40695 186.72645,38.77846 275,0"
       id="path6319"
       inkscape:connector-curvature="0"
       sodipodi:nodetypes="cc" />
    <path
       style="fill:none;stroke:#ff0000;stroke-width:1px;stroke-linecap:butt;stroke-linejoin:miter;stroke-opacity:1;marker-end:url(#Arrow1Mend)"
       d="m 244.28571,127.00504 c 66.06439,21.43888 126.51276,15.49968 185,0"
       id="path5769-4"
       inkscape:connector-curvature="0"
       sodipodi:nodetypes="cc" />
    <path
       style="fill:none;stroke:#ff0000;stroke-width:1.02136922px;stroke-linecap:butt;stroke-linejoin:miter;stroke-opacity:1;marker-end:url(#Arrow1Mend)"
       d="m 244.29639,127.01561 c 99.11444,37.37912 194.93714,38.74961 287.09223,0"
       id="path6319-4"
       inkscape:connector-curvature="0"
       sodipodi:nodetypes="cc" />
    <path
       style="fill:none;stroke:#00ff00;stroke-width:1px;stroke-linecap:butt;stroke-linejoin:miter;stroke-opacity:1;marker-end:url(#marker6539-8)"
       d="m 340,127.36218 c 70.10703,26.6432 134.17093,29.51677 190,0"
       id="path6794"
       inkscape:connector-curvature="0"
       sodipodi:nodetypes="cc" />
    <path
       style="fill:none;stroke:#00ff00;stroke-width:1px;stroke-linecap:butt;stroke-linejoin:miter;stroke-opacity:1;marker-end:url(#marker6539-8)"
       d="m 318.21429,104.14789 c -13.25538,-12.50805 -23.19745,-37.164907 -50,0"
       id="path6992"
       inkscape:connector-curvature="0"
       sodipodi:nodetypes="cc" />
    <path
       style="fill:none;stroke:#d200ff;stroke-width:1px;stroke-linecap:butt;stroke-linejoin:miter;stroke-opacity:1;marker-end:url(#marker6539-8)"
       d="m 410,107.36218 c -56.5025,-133.540363 -101.6645,-79.01262 -145,0"
       id="path7190"
       inkscape:connector-curvature="0"
       sodipodi:nodetypes="cc" />
    <path
       style="fill:none;stroke:#ea00ff;stroke-width:1px;stroke-linecap:butt;stroke-linejoin:miter;stroke-opacity:1;marker-end:url(#marker6539-8)"
       d="m 430,127.36218 c 42.99898,41.24008 70.79303,17.60582 100,0"
       id="path7388"
       inkscape:connector-curvature="0"
       sodipodi:nodetypes="cc" />
    <path
       sodipodi:type="arc"
       style="fill:none;stroke:#000000;stroke-width:0.542;stroke-miterlimit:4;stroke-opacity:1;stroke-dasharray:none"
       id="path7586"
       sodipodi:cx="530"
       sodipodi:cy="112.36218"
       sodipodi:rx="10"
       sodipodi:ry="10"
       d="m 540,112.36218 a 10,10 0 1 1 -20,0 10,10 0 1 1 20,0 z"
       transform="translate(2,-6)" />
    <path
       sodipodi:type="arc"
       style="fill:none;stroke:#0000ff;stroke-width:0.542;stroke-miterlimit:4;stroke-opacity:1;stroke-dasharray:none"
       id="path2985-6"
       sodipodi:cx="62.142857"
       sodipodi:cy="108.07647"
       sodipodi:rx="21.428572"
       sodipodi:ry="20"
       d="m 83.571428,108.07647 a 21.428572,20 0 1 1 -42.857143,0 21.428572,20 0 1 1 42.857143,0 z"
       transform="translate(191.86197,165.64564)" />
    <path
       transform="translate(281.4334,166.78849)"
       sodipodi:type="arc"
       style="fill:none;stroke:#ff0000;stroke-width:0.542;stroke-miterlimit:4;stroke-opacity:1;stroke-dasharray:none"
       id="path2985-5-2"
       sodipodi:cx="62.142857"
       sodipodi:cy="108.07647"
       sodipodi:rx="21.428572"
       sodipodi:ry="20"
       d="m 83.571428,108.07647 a 21.428572,20 0 1 1 -42.857143,0 21.428572,20 0 1 1 42.857143,0 z" />
    <path
       transform="translate(376.29054,167.35992)"
       sodipodi:type="arc"
       style="fill:none;stroke:#000000;stroke-width:0.54200000000000004;stroke-miterlimit:4;stroke-opacity:1;stroke-dasharray:none"
       id="path2985-4-3"
       sodipodi:cx="62.142857"
       sodipodi:cy="108.07647"
       sodipodi:rx="21.428572"
       sodipodi:ry="20"
       d="m 83.571428,108.07647 a 21.428572,20 0 1 1 -42.857143,0 21.428572,20 0 1 1 42.857143,0 z" />
    <path
       style="fill:none;stroke:#ff0000;stroke-width:1px;stroke-linecap:butt;stroke-linejoin:miter;stroke-opacity:1;marker-end:url(#Arrow1Mend)"
       d="m 364.29054,275.86496 50,0"
       id="path3032-1"
       inkscape:connector-curvature="0" />
    <path
       style="fill:none;stroke:#0000ff;stroke-width:1px;stroke-linecap:butt;stroke-linejoin:miter;stroke-opacity:1;marker-end:url(#Arrow1Mend)"
       d="m 274.29054,275.86496 45,0"
       id="path3038-1"
       inkscape:connector-curvature="0" />
    <path
       style="fill:none;stroke:#0000ff;stroke-width:1px;stroke-linecap:butt;stroke-linejoin:miter;stroke-opacity:1;marker-end:url(#Arrow1Mend)"
       d="m 243.88699,254.75456 c -30.25213,-54.62331 49.58715,-63.9452 20,0"
       id="path4798-52"
       inkscape:connector-curvature="0"
       sodipodi:nodetypes="cc" />
    <path
       style="fill:none;stroke:#ff0000;stroke-width:1px;stroke-linecap:butt;stroke-linejoin:miter;stroke-opacity:1;marker-end:url(#Arrow1Mend)"
       d="m 333.88699,256.75456 c -30.25213,-54.62331 49.58715,-63.94521 20,0"
       id="path4798-0-5"
       inkscape:connector-curvature="0"
       sodipodi:nodetypes="cc" />
    <path
       style="fill:none;stroke:#000000;stroke-width:1px;stroke-linecap:butt;stroke-linejoin:miter;stroke-opacity:1;marker-end:url(#Arrow1Mend)"
       d="m 428.88699,255.75456 c -30.25213,-54.62331 49.58715,-63.94521 20,0"
       id="path4798-5-1"
       inkscape:connector-curvature="0"
       sodipodi:nodetypes="cc" />
    <text
       xml:space="preserve"
       style="font-size:8px;font-style:normal;font-variant:normal;font-weight:normal;font-stretch:normal;text-align:start;line-height:125%;letter-spacing:0px;word-spacing:0px;writing-mode:lr-tb;text-anchor:start;fill:#000000;fill-opacity:1;stroke:none;font-family:TG Pagella Math;-inkscape-font-specification:TG Pagella Math"
       x="250.79312"
       y="276.62488"
       id="text5749-3"
       sodipodi:linespacing="125%"><tspan
         sodipodi:role="line"
         id="tspan5751-4"
         x="250.79312"
         y="276.62488">0</tspan></text>
    <text
       xml:space="preserve"
       style="font-size:8px;font-style:normal;font-variant:normal;font-weight:normal;font-stretch:normal;text-align:start;line-height:125%;letter-spacing:0px;word-spacing:0px;writing-mode:lr-tb;text-anchor:start;fill:#000000;fill-opacity:1;stroke:none;font-family:TG Pagella Math;-inkscape-font-specification:TG Pagella Math"
       x="340"
       y="277.36218"
       id="text5753-4"
       sodipodi:linespacing="125%"><tspan
         sodipodi:role="line"
         id="tspan5755-2"
         x="340"
         y="277.36218">1</tspan></text>
    <text
       xml:space="preserve"
       style="font-size:8px;font-style:normal;font-variant:normal;font-weight:normal;font-stretch:normal;text-align:start;line-height:125%;letter-spacing:0px;word-spacing:0px;writing-mode:lr-tb;text-anchor:start;fill:#000000;fill-opacity:1;stroke:none;font-family:TG Pagella Math;-inkscape-font-specification:TG Pagella Math"
       x="435.43909"
       y="278.14011"
       id="text5757-2"
       sodipodi:linespacing="125%"><tspan
         sodipodi:role="line"
         id="tspan5759-4"
         x="435.43909"
         y="278.14011">2</tspan></text>
    <text
       xml:space="preserve"
       style="font-size:8px;font-style:normal;font-variant:normal;font-weight:normal;font-stretch:normal;text-align:start;line-height:125%;letter-spacing:0px;word-spacing:0px;writing-mode:lr-tb;text-anchor:start;fill:#000000;fill-opacity:1;stroke:none;font-family:TG Pagella Math;-inkscape-font-specification:TG Pagella Math"
       x="305"
       y="12.362183"
       id="text7853"
       sodipodi:linespacing="125%"><tspan
         sodipodi:role="line"
         id="tspan7855"
         x="305"
         y="12.362183">5 state HMM Model</tspan></text>
    <text
       xml:space="preserve"
       style="font-size:8px;font-style:normal;font-variant:normal;font-weight:normal;font-stretch:normal;text-align:start;line-height:125%;letter-spacing:0px;word-spacing:0px;writing-mode:lr-tb;text-anchor:start;fill:#000000;fill-opacity:1;stroke:none;font-family:TG Pagella Math;-inkscape-font-specification:TG Pagella Math"
       x="310"
       y="192.36218"
       id="text7853-4"
       sodipodi:linespacing="125%"><tspan
         sodipodi:role="line"
         id="tspan7855-5"
         x="310"
         y="192.36218">3 state HMM Model</tspan></text>
    <path
       sodipodi:type="arc"
       style="fill:none;stroke:#000000;stroke-width:0.542;stroke-miterlimit:4;stroke-opacity:1;stroke-dasharray:none"
       id="path7586-3"
       sodipodi:cx="530"
       sodipodi:cy="112.36218"
       sodipodi:rx="10"
       sodipodi:ry="10"
       d="m 540,112.36218 a 10,10 0 1 1 -20,0 10,10 0 1 1 20,0 z"
       transform="translate(-92,163)" />
    <text
       xml:space="preserve"
       style="font-size:8px;font-style:normal;font-variant:normal;font-weight:normal;font-stretch:normal;text-align:start;line-height:125%;letter-spacing:0px;word-spacing:0px;writing-mode:lr-tb;text-anchor:start;fill:#000000;fill-opacity:1;stroke:none;font-family:TG Pagella Math;-inkscape-font-specification:TG Pagella Math"
       x="525"
       y="94.362183"
       id="text7953"
       sodipodi:linespacing="125%"><tspan
         sodipodi:role="line"
         id="tspan7955"
         x="525"
         y="94.362183">0.25</tspan></text>
    <text
       xml:space="preserve"
       style="font-size:8px;font-style:normal;font-variant:normal;font-weight:normal;font-stretch:normal;text-align:start;line-height:125%;letter-spacing:0px;word-spacing:0px;writing-mode:lr-tb;text-anchor:start;fill:#000000;fill-opacity:1;stroke:none;font-family:TG Pagella Math;-inkscape-font-specification:TG Pagella Math"
       x="430"
       y="262.36218"
       id="text7957"
       sodipodi:linespacing="125%"><tspan
         sodipodi:role="line"
         id="tspan7959"
         x="430"
         y="262.36218">0.25</tspan></text>
    <text
       xml:space="preserve"
       style="font-size:8px;font-style:normal;font-variant:normal;font-weight:normal;font-stretch:normal;text-align:start;line-height:125%;letter-spacing:0px;word-spacing:0px;writing-mode:lr-tb;text-anchor:start;fill:#000000;fill-opacity:1;stroke:none;font-family:TG Pagella Math;-inkscape-font-specification:TG Pagella Math"
       x="433"
       y="207.36218"
       id="text7961"
       sodipodi:linespacing="125%"><tspan
         sodipodi:role="line"
         id="tspan7963"
         x="433"
         y="207.36218">0.75</tspan></text>
    <text
       xml:space="preserve"
       style="font-size:8px;font-style:normal;font-variant:normal;font-weight:normal;font-stretch:normal;text-align:start;line-height:125%;letter-spacing:0px;word-spacing:0px;writing-mode:lr-tb;text-anchor:start;fill:#000000;fill-opacity:1;stroke:none;font-family:TG Pagella Math;-inkscape-font-specification:TG Pagella Math"
       x="525"
       y="40.362183"
       id="text7965"
       sodipodi:linespacing="125%"><tspan
         sodipodi:role="line"
         id="tspan7967"
         x="525"
         y="40.362183">0.75</tspan></text>
  </g>
</svg>
